<svg width="19" height="24" viewBox="0 0 19 24" fill="currentColor" xmlns="http://www.w3.org/2000/svg">
<path d="M0.8715 10.4H2.614V21.6H5.2285V12H7.843V21.6H10.457V12H13.072V21.6H15.6865V10.4H17.4285C17.91 10.4 18.3005 10.042 18.3005 9.6C18.3005 9.333 18.1565 9.098 17.937 8.953L17.9385 8.9515L17.9255 8.944L17.903 8.9305L9.5855 4.626V3.365C11.1215 4.071 12.386 2.855 14.378 3.586V0.8005C12.385 0.0695 11.121 1.2845 9.5855 0.579V0.4C9.5855 0.1785 9.391 0 9.15 0C8.909 0 8.715 0.1785 8.715 0.4V4.626L0.3975 8.9295L0.375 8.943L0.3625 8.9515V8.953C0.144 9.098 0.000499964 9.3335 0.000499964 9.6C-3.62634e-08 10.042 0.3905 10.4 0.8715 10.4ZM1.7425 22.4005L0 24H18.301L16.5575 22.4005H1.7425Z"/>
</svg>
