<svg width="20" height="23" viewBox="0 0 20 23" fill="currentColor" xmlns="http://www.w3.org/2000/svg">
<path fill-rule="evenodd" clip-rule="evenodd" d="M9.15831 7.6665C9.15831 9.25734 8.04998 10.5415 6.66665 10.5415C5.28331 10.5415 4.16665 9.25734 4.16665 7.6665C4.16665 6.07567 5.28331 4.7915 6.66665 4.7915C8.04998 4.7915 9.15831 6.07567 9.15831 7.6665ZM15.825 7.6665C15.825 9.25734 14.7166 10.5415 13.3333 10.5415C11.95 10.5415 10.8333 9.25734 10.8333 7.6665C10.8333 6.07567 11.95 4.7915 13.3333 4.7915C14.7166 4.7915 15.825 6.07567 15.825 7.6665ZM6.66665 12.4582C4.72498 12.4582 0.833313 13.5794 0.833313 15.8123V17.2498C0.833313 17.7769 1.20831 18.2082 1.66665 18.2082H11.6666C12.125 18.2082 12.5 17.7769 12.5 17.2498V15.8123C12.5 13.5794 8.60831 12.4582 6.66665 12.4582ZM12.525 12.5061C12.8166 12.4773 13.0916 12.4582 13.3333 12.4582C15.275 12.4582 19.1666 13.5794 19.1666 15.8123V17.2498C19.1666 17.7769 18.7916 18.2082 18.3333 18.2082H14.0166C14.1083 17.9111 14.1666 17.5853 14.1666 17.2498V15.8123C14.1666 14.4036 13.5083 13.3398 12.5583 12.5444C12.5558 12.5415 12.5533 12.5377 12.5505 12.5336C12.5442 12.5241 12.5366 12.5128 12.525 12.5061Z"/>
</svg>
